<svg width="809" height="15" viewBox="0 0 809 15" fill="none" xmlns="http://www.w3.org/2000/svg">
<path d="M1.14893 7.32804C12.3552 -0.675751 23.5615 -0.675751 34.7677 7.32804C45.974 15.3318 57.1803 15.3318 68.3865 7.32804C79.5928 -0.675751 90.7991 -0.675751 102.005 7.32804C113.212 15.3318 124.418 15.3318 135.624 7.32804C146.83 -0.675751 158.037 -0.675751 169.243 7.32804C180.449 15.3318 191.655 15.3318 202.862 7.32804C214.068 -0.675751 225.274 -0.675751 236.481 7.32804C247.687 15.3318 258.893 15.3318 270.099 7.32804C281.306 -0.675751 292.512 -0.675751 303.718 7.32804C314.924 15.3318 326.131 15.3318 337.337 7.32804C348.543 -0.675751 359.749 -0.675751 370.956 7.32804C382.162 15.3318 393.368 15.3318 404.574 7.32804C415.781 -0.675751 426.987 -0.675751 438.193 7.32804C449.4 15.3318 460.606 15.3318 471.812 7.32804C483.018 -0.675751 494.225 -0.675751 505.431 7.32804C516.637 15.3318 527.843 15.3318 539.05 7.32804C550.256 -0.675751 561.462 -0.675751 572.668 7.32804C583.875 15.3318 595.081 15.3318 606.287 7.32804C617.494 -0.675751 628.7 -0.675751 639.906 7.32804C651.112 15.3318 662.319 15.3318 673.525 7.32804C684.731 -0.675751 695.937 -0.675751 707.144 7.32804C718.35 15.3318 729.556 15.3318 740.762 7.32804C751.969 -0.675751 763.175 -0.675751 774.381 7.32804C785.588 15.3318 796.794 15.3318 808 7.32804" stroke="#CCE1E4" stroke-width="2" stroke-linecap="round"/>
</svg>
