<svg width="1512" height="240" viewBox="0 0 1512 240" fill="none" xmlns="http://www.w3.org/2000/svg">
<path d="M1381.8 120C1441.81 120 1451.52 151.818 1512 151.818V240H1260V151.818C1320.48 151.818 1321.79 120 1381.8 120Z" fill="#67B0C7"/>
<path d="M1129.8 120C1189.81 120 1199.52 151.818 1260 151.818V240H1008V151.818C1068.48 151.818 1069.79 120 1129.8 120Z" fill="#67B0C7"/>
<path d="M877.8 120C937.81 120 947.52 151.818 1008 151.818V240H756V151.818C816.48 151.818 817.79 120 877.8 120Z" fill="#67B0C7"/>
<path d="M625.8 120C685.81 120 695.52 151.818 756 151.818V240H504V151.818C564.48 151.818 565.79 120 625.8 120Z" fill="#67B0C7"/>
<path d="M373.8 120C433.81 120 443.52 151.818 504 151.818V240H252V151.818C312.48 151.818 313.79 120 373.8 120Z" fill="#67B0C7"/>
<path d="M121.8 120C181.81 120 191.52 151.818 252 151.818V240H1.52588e-05V151.818C60.48 151.818 61.79 120 121.8 120Z" fill="#67B0C7"/>
</svg>
