<svg width="200" height="40" viewBox="0 0 200 40" fill="none" xmlns="http://www.w3.org/2000/svg">
<path d="M16.6666 24.9997L25.3166 19.9997L16.6666 14.9997V24.9997ZM35.9333 11.9497C36.15 12.733 36.3 13.783 36.4 15.1163C36.5166 16.4497 36.5667 17.5997 36.5667 18.5997L36.6666 19.9997C36.6666 23.6497 36.4 26.333 35.9333 28.0497C35.5166 29.5497 34.55 30.5163 33.05 30.933C32.2666 31.1497 30.8333 31.2997 28.6333 31.3997C26.4666 31.5163 24.4833 31.5663 22.65 31.5663L20 31.6663C13.0166 31.6663 8.66665 31.3997 6.94998 30.933C5.44998 30.5163 4.48331 29.5497 4.06665 28.0497C3.84998 27.2663 3.69998 26.2163 3.59998 24.883C3.48331 23.5497 3.43331 22.3997 3.43331 21.3997L3.33331 19.9997C3.33331 16.3497 3.59998 13.6663 4.06665 11.9497C4.48331 10.4497 5.44998 9.48301 6.94998 9.06634C7.73331 8.84967 9.16665 8.69967 11.3666 8.59967C13.5333 8.48301 15.5166 8.43301 17.35 8.43301L20 8.33301C26.9833 8.33301 31.3333 8.59967 33.05 9.06634C34.55 9.48301 35.5166 10.4497 35.9333 11.9497Z" fill="#67B0C7"/>
<path d="M93 3.33301H107C112.333 3.33301 116.667 7.66634 116.667 12.9997V26.9997C116.667 29.5634 115.648 32.0222 113.835 33.835C112.022 35.6479 109.564 36.6663 107 36.6663H93C87.6666 36.6663 83.3333 32.333 83.3333 26.9997V12.9997C83.3333 10.4359 84.3518 7.97716 86.1646 6.16431C87.9775 4.35146 90.4362 3.33301 93 3.33301ZM92.6666 6.66634C91.0753 6.66634 89.5492 7.29848 88.424 8.4237C87.2988 9.54892 86.6666 11.075 86.6666 12.6663V27.333C86.6666 30.6497 89.35 33.333 92.6666 33.333H107.333C108.925 33.333 110.451 32.7009 111.576 31.5757C112.701 30.4504 113.333 28.9243 113.333 27.333V12.6663C113.333 9.34967 110.65 6.66634 107.333 6.66634H92.6666ZM108.75 9.16634C109.303 9.16634 109.832 9.38583 110.223 9.77654C110.614 10.1672 110.833 10.6971 110.833 11.2497C110.833 11.8022 110.614 12.3321 110.223 12.7228C109.832 13.1135 109.303 13.333 108.75 13.333C108.197 13.333 107.668 13.1135 107.277 12.7228C106.886 12.3321 106.667 11.8022 106.667 11.2497C106.667 10.6971 106.886 10.1672 107.277 9.77654C107.668 9.38583 108.197 9.16634 108.75 9.16634ZM100 11.6663C102.21 11.6663 104.33 12.5443 105.893 14.1071C107.455 15.6699 108.333 17.7895 108.333 19.9997C108.333 22.2098 107.455 24.3294 105.893 25.8922C104.33 27.455 102.21 28.333 100 28.333C97.7898 28.333 95.6702 27.455 94.1074 25.8922C92.5446 24.3294 91.6666 22.2098 91.6666 19.9997C91.6666 17.7895 92.5446 15.6699 94.1074 14.1071C95.6702 12.5443 97.7898 11.6663 100 11.6663ZM100 14.9997C98.6739 14.9997 97.4021 15.5265 96.4644 16.4641C95.5268 17.4018 95 18.6736 95 19.9997C95 21.3258 95.5268 22.5975 96.4644 23.5352C97.4021 24.4729 98.6739 24.9997 100 24.9997C101.326 24.9997 102.598 24.4729 103.536 23.5352C104.473 22.5975 105 21.3258 105 19.9997C105 18.6736 104.473 17.4018 103.536 16.4641C102.598 15.5265 101.326 14.9997 100 14.9997Z" fill="#67B0C7"/>
<path d="M197.433 10.0003C196.15 10.5837 194.767 10.967 193.333 11.1503C194.8 10.267 195.933 8.86699 196.467 7.18366C195.083 8.01699 193.55 8.60033 191.933 8.93366C190.617 7.50033 188.767 6.66699 186.667 6.66699C182.75 6.66699 179.55 9.86699 179.55 13.817C179.55 14.3837 179.617 14.9337 179.733 15.4503C173.8 15.1503 168.517 12.3003 165 7.98366C164.383 9.03366 164.033 10.267 164.033 11.567C164.033 14.0503 165.283 16.2503 167.217 17.5003C166.033 17.5003 164.933 17.167 163.967 16.667V16.717C163.967 20.1837 166.433 23.0837 169.7 23.7337C168.651 24.0207 167.55 24.0606 166.483 23.8503C166.936 25.2711 167.823 26.5143 169.018 27.4052C170.214 28.2961 171.659 28.7898 173.15 28.817C170.623 30.8177 167.49 31.8992 164.267 31.8837C163.7 31.8837 163.133 31.8503 162.567 31.7837C165.733 33.817 169.5 35.0003 173.533 35.0003C186.667 35.0003 193.883 24.1003 193.883 14.6503C193.883 14.3337 193.883 14.0337 193.867 13.717C195.267 12.717 196.467 11.4503 197.433 10.0003Z" fill="#67B0C7"/>
</svg>
