<svg width="280" height="302" viewBox="0 0 280 302" fill="none" xmlns="http://www.w3.org/2000/svg">
<path fill-rule="evenodd" clip-rule="evenodd" d="M56.7559 1.25473C54.1537 -0.391537 50.7452 1.39649 50.6206 4.47316L49.1136 41.679C15.2225 62.9613 0 101.71 0 161.37C0 259.874 41.4966 301.37 140 301.37C238.503 301.37 280 259.874 280 161.37C280 101.916 264.883 63.2301 231.238 41.9008L229.722 4.47316C229.597 1.39649 226.189 -0.391537 223.587 1.25473L185.845 25.1318C172.197 22.5979 156.942 21.3704 140 21.3704C123.168 21.3704 108 22.5821 94.4198 25.0828L56.7559 1.25473Z" fill="#9ED0E0"/>
<path d="M125.42 51.26C124.914 50.9933 124.367 50.7667 123.78 50.58C123.194 50.3933 122.627 50.3 122.08 50.3C121.334 50.3 120.74 50.4733 120.3 50.82C119.86 51.1533 119.64 51.6133 119.64 52.2C119.64 52.6133 119.787 52.9733 120.08 53.28C120.374 53.5867 120.754 53.8533 121.22 54.08C121.687 54.3067 122.18 54.52 122.7 54.72C123.14 54.88 123.574 55.0733 124 55.3C124.44 55.5133 124.834 55.78 125.18 56.1C125.54 56.42 125.82 56.82 126.02 57.3C126.234 57.7667 126.34 58.34 126.34 59.02C126.34 59.7933 126.147 60.4933 125.76 61.12C125.387 61.7467 124.84 62.2467 124.12 62.62C123.414 62.98 122.554 63.16 121.54 63.16C120.927 63.16 120.327 63.0933 119.74 62.96C119.167 62.8133 118.62 62.6267 118.1 62.4C117.594 62.16 117.134 61.9 116.72 61.62L117.68 59.96C118 60.1867 118.367 60.4067 118.78 60.62C119.194 60.82 119.62 60.98 120.06 61.1C120.514 61.22 120.94 61.28 121.34 61.28C121.78 61.28 122.214 61.2067 122.64 61.06C123.067 60.9 123.42 60.66 123.7 60.34C123.98 60.0067 124.12 59.5733 124.12 59.04C124.12 58.5867 123.994 58.2067 123.74 57.9C123.5 57.58 123.174 57.3067 122.76 57.08C122.36 56.8533 121.927 56.6533 121.46 56.48C121.007 56.3067 120.547 56.1133 120.08 55.9C119.614 55.6867 119.18 55.4333 118.78 55.14C118.38 54.8333 118.054 54.46 117.8 54.02C117.56 53.5667 117.44 53.0133 117.44 52.36C117.44 51.5867 117.62 50.9133 117.98 50.34C118.354 49.7533 118.867 49.2933 119.52 48.96C120.174 48.6267 120.927 48.44 121.78 48.4C122.754 48.4 123.6 48.52 124.32 48.76C125.04 49 125.68 49.2867 126.24 49.62L125.42 51.26ZM128.363 48.48H138.043V50.54H134.223V63H132.083V50.54H128.363V48.48ZM141.063 48.48H150.603V50.54H143.203V54.68H149.783V56.74H143.203V60.94H150.883V63H141.063V48.48ZM158.169 48.48C159.249 48.48 160.169 48.6667 160.929 49.04C161.702 49.4 162.289 49.92 162.689 50.6C163.102 51.28 163.309 52.1067 163.309 53.08C163.309 53.6533 163.222 54.22 163.049 54.78C162.876 55.34 162.596 55.8533 162.209 56.32C161.836 56.7733 161.336 57.14 160.709 57.42C160.082 57.6867 159.322 57.82 158.429 57.82H156.309V63H154.169V48.48H158.169ZM158.429 55.76C158.962 55.76 159.409 55.6733 159.769 55.5C160.129 55.3133 160.409 55.08 160.609 54.8C160.822 54.52 160.969 54.2333 161.049 53.94C161.142 53.6333 161.189 53.36 161.189 53.12C161.189 52.8533 161.142 52.5733 161.049 52.28C160.969 51.9733 160.829 51.6933 160.629 51.44C160.429 51.1733 160.156 50.96 159.809 50.8C159.462 50.6267 159.029 50.54 158.509 50.54H156.309V55.76H158.429ZM129.029 113C127.051 112.963 125.203 112.627 123.485 111.992C121.805 111.32 120.312 110.331 119.005 109.024C117.736 107.68 116.747 106.019 116.037 104.04C115.328 102.024 115.011 99.6533 115.085 96.928C115.123 96.1067 115.235 95.0427 115.421 93.736C115.608 92.392 115.907 90.9173 116.317 89.312C116.765 87.7067 117.4 86.1013 118.221 84.496C119.08 82.8907 120.144 81.4347 121.413 80.128C122.683 78.784 124.251 77.72 126.117 76.936C127.984 76.1147 130.187 75.7227 132.725 75.76C134.629 75.76 136.459 76.1333 138.213 76.88C139.968 77.6267 141.517 78.728 142.861 80.184C144.205 81.64 145.195 83.4507 145.829 85.616C146.501 87.744 146.688 90.2267 146.389 93.064C146.203 95.7893 145.699 98.3653 144.877 100.792C144.056 103.219 142.917 105.365 141.461 107.232C140.043 109.061 138.288 110.499 136.197 111.544C134.144 112.552 131.755 113.037 129.029 113ZM129.813 106.84C131.381 106.877 132.744 106.467 133.901 105.608C135.096 104.749 136.085 103.611 136.869 102.192C137.691 100.773 138.307 99.2053 138.717 97.488C139.165 95.7707 139.445 94.0533 139.557 92.336C139.632 89.76 139.315 87.7253 138.605 86.232C137.896 84.7013 136.925 83.6187 135.693 82.984C134.461 82.312 133.136 81.9573 131.717 81.92C130.149 81.8827 128.768 82.2933 127.573 83.152C126.416 84.0107 125.427 85.1493 124.605 86.568C123.821 87.9493 123.205 89.5173 122.757 91.272C122.309 92.9893 122.048 94.7067 121.973 96.424C121.899 98.9627 122.216 100.997 122.925 102.528C123.635 104.059 124.605 105.16 125.837 105.832C127.069 106.467 128.395 106.803 129.813 106.84ZM155.206 76.04H165.454L160.918 113H154.366L158.118 82.312H154.422L155.206 76.04Z" fill="white"/>
<g clip-path="url(#clip0_621_2082)">
<circle cx="179" cy="186" r="32" fill="white" stroke="#4A3636" stroke-width="2"/>
<path d="M201 186.366C201 187.018 200.464 187.55 199.798 187.55H197.398V189.913C197.398 190.564 196.862 191.097 196.195 191.097C195.528 191.097 194.993 190.569 194.993 189.913V187.55H192.593C191.931 187.55 191.39 187.023 191.39 186.366C191.39 185.71 191.926 185.182 192.593 185.182H194.993V182.82C194.993 182.168 195.528 181.636 196.195 181.636C196.862 181.636 197.398 182.163 197.398 182.82V185.182H199.798C200.459 185.182 201 185.71 201 186.366ZM192.32 195.056C192.744 195.558 192.679 196.3 192.174 196.722C191.668 197.145 190.91 197.076 190.481 196.578C187.465 193.042 183.317 191.092 178.8 191.092C174.283 191.092 170.14 193.042 167.119 196.578C166.695 197.076 165.937 197.14 165.426 196.722C164.921 196.305 164.855 195.558 165.28 195.056C167.523 192.43 170.307 190.564 173.404 189.57C168.625 186.64 167.159 180.447 170.14 175.736C173.121 171.026 179.411 169.588 184.191 172.518C188.97 175.448 190.436 181.641 187.455 186.351C186.631 187.655 185.515 188.754 184.191 189.565C187.288 190.564 190.077 192.43 192.315 195.051L192.32 195.056ZM178.8 188.729C183.11 188.729 186.601 185.292 186.601 181.049C186.601 176.806 183.11 173.369 178.8 173.369C174.49 173.369 170.999 176.806 170.999 181.049C170.999 185.287 174.495 188.724 178.8 188.729Z" fill="#4A3636"/>
</g>
<g clip-path="url(#clip1_621_2082)">
<rect x="105.488" y="135" width="52.0231" height="94.7914" rx="7" fill="white" stroke="#4A3636" stroke-width="2"/>
<path d="M116.494 134H146.507V136.003C146.507 138.212 144.716 140.003 142.507 140.003H120.494C118.285 140.003 116.494 138.212 116.494 136.003V134Z" fill="#4A3636"/>
<path d="M115.742 223.288H147.256" stroke="#4A3636" stroke-width="2" stroke-linecap="round"/>
<path d="M122.967 165.5H140.033C144.5 165.5 148.131 169.131 148.131 173.598V190.664C148.131 195.131 144.5 198.762 140.033 198.762H122.967C118.5 198.762 114.869 195.131 114.869 190.664V173.598C114.869 169.131 118.5 165.5 122.967 165.5Z" fill="white" stroke="#4A3636" stroke-width="3"/>
<path d="M124.941 182.131C124.941 178.508 127.875 175.574 131.498 175.573C135.125 175.582 138.058 178.52 138.058 182.131C138.058 185.754 135.123 188.689 131.5 188.689C127.876 188.689 124.941 185.754 124.941 182.131Z" stroke="#4A3636" stroke-width="3"/>
<path d="M140.817 174.576C141.791 174.576 142.58 173.787 142.58 172.814C142.58 171.84 141.791 171.051 140.817 171.051C139.844 171.051 139.055 171.84 139.055 172.814C139.055 173.787 139.844 174.576 140.817 174.576Z" fill="#4A3636"/>
</g>
<path d="M90.0258 186.635L87.9824 186.047C80.7337 183.976 75.9448 182.602 74.1387 178.937C72.6584 175.933 73.8589 172.429 76.8561 170.953C78.5493 170.118 80.5624 170.105 82.2315 170.817C82.6838 169.06 83.9209 167.471 85.6141 166.637C88.6113 165.16 92.1208 166.343 93.6011 169.347C95.4071 173.013 93.5788 177.647 90.8045 184.657L90.0258 186.635Z" fill="white"/>
<rect x="1" y="-1" width="119" height="26" rx="7" transform="matrix(1 0 0 -1 79 272)" fill="white"/>
<rect x="1" y="-1" width="119" height="26" rx="7" transform="matrix(1 0 0 -1 79 272)" stroke="#4A3636" stroke-width="2"/>
<path d="M104.52 254.224H111.88V256.464H106.84V259.136H111.208V261.376H106.84V266H104.52V254.224ZM113.394 260.128C113.394 259.317 113.548 258.549 113.858 257.824C114.167 257.099 114.594 256.459 115.138 255.904C115.692 255.339 116.332 254.896 117.058 254.576C117.783 254.256 118.562 254.096 119.394 254.096C120.215 254.096 120.988 254.256 121.714 254.576C122.439 254.896 123.079 255.339 123.634 255.904C124.199 256.459 124.636 257.099 124.946 257.824C125.266 258.549 125.426 259.317 125.426 260.128C125.426 260.96 125.266 261.739 124.946 262.464C124.636 263.189 124.199 263.829 123.634 264.384C123.079 264.928 122.439 265.355 121.714 265.664C120.988 265.973 120.215 266.128 119.394 266.128C118.562 266.128 117.783 265.973 117.058 265.664C116.332 265.355 115.692 264.928 115.138 264.384C114.594 263.829 114.167 263.189 113.858 262.464C113.548 261.739 113.394 260.96 113.394 260.128ZM115.794 260.128C115.794 260.651 115.884 261.141 116.066 261.6C116.258 262.048 116.519 262.448 116.85 262.8C117.191 263.141 117.58 263.408 118.018 263.6C118.466 263.792 118.951 263.888 119.474 263.888C119.975 263.888 120.439 263.792 120.866 263.6C121.303 263.408 121.682 263.141 122.002 262.8C122.322 262.448 122.572 262.048 122.754 261.6C122.935 261.141 123.026 260.651 123.026 260.128C123.026 259.595 122.93 259.099 122.738 258.64C122.556 258.181 122.3 257.781 121.97 257.44C121.65 257.088 121.271 256.816 120.834 256.624C120.396 256.432 119.922 256.336 119.41 256.336C118.898 256.336 118.423 256.432 117.986 256.624C117.548 256.816 117.164 257.088 116.834 257.44C116.503 257.781 116.247 258.181 116.066 258.64C115.884 259.099 115.794 259.595 115.794 260.128ZM127.739 254.224H130.059V263.76H135.595V266H127.739V254.224ZM137.989 254.224H140.309V263.76H145.845V266H137.989V254.224ZM147.191 260.128C147.191 259.317 147.345 258.549 147.655 257.824C147.964 257.099 148.391 256.459 148.935 255.904C149.489 255.339 150.129 254.896 150.855 254.576C151.58 254.256 152.359 254.096 153.191 254.096C154.012 254.096 154.785 254.256 155.511 254.576C156.236 254.896 156.876 255.339 157.431 255.904C157.996 256.459 158.433 257.099 158.743 257.824C159.063 258.549 159.223 259.317 159.223 260.128C159.223 260.96 159.063 261.739 158.743 262.464C158.433 263.189 157.996 263.829 157.431 264.384C156.876 264.928 156.236 265.355 155.511 265.664C154.785 265.973 154.012 266.128 153.191 266.128C152.359 266.128 151.58 265.973 150.855 265.664C150.129 265.355 149.489 264.928 148.935 264.384C148.391 263.829 147.964 263.189 147.655 262.464C147.345 261.739 147.191 260.96 147.191 260.128ZM149.591 260.128C149.591 260.651 149.681 261.141 149.863 261.6C150.055 262.048 150.316 262.448 150.647 262.8C150.988 263.141 151.377 263.408 151.815 263.6C152.263 263.792 152.748 263.888 153.271 263.888C153.772 263.888 154.236 263.792 154.663 263.6C155.1 263.408 155.479 263.141 155.799 262.8C156.119 262.448 156.369 262.048 156.551 261.6C156.732 261.141 156.823 260.651 156.823 260.128C156.823 259.595 156.727 259.099 156.535 258.64C156.353 258.181 156.097 257.781 155.767 257.44C155.447 257.088 155.068 256.816 154.631 256.624C154.193 256.432 153.719 256.336 153.207 256.336C152.695 256.336 152.22 256.432 151.783 256.624C151.345 256.816 150.961 257.088 150.631 257.44C150.3 257.781 150.044 258.181 149.863 258.64C149.681 259.099 149.591 259.595 149.591 260.128ZM159.575 254.304H162.295L164.807 261.696L164.439 261.536L166.631 256.08L167.703 259.264L164.311 266.544L159.575 254.304ZM165.479 254.304H167.783L170.679 261.456L170.263 261.392L172.423 254.304H174.919L170.375 266.512L165.479 254.304Z" fill="#4A3636"/>
<defs>
<clipPath id="clip0_621_2082">
<rect width="66" height="66" fill="white" transform="matrix(1 0 0 -1 146 219)"/>
</clipPath>
<clipPath id="clip1_621_2082">
<rect width="55" height="97" fill="white" transform="matrix(1 0 0 -1 104 231)"/>
</clipPath>
</defs>
</svg>
