<svg width="280" height="302" viewBox="0 0 280 302" fill="none" xmlns="http://www.w3.org/2000/svg">
<path fill-rule="evenodd" clip-rule="evenodd" d="M56.7558 1.25473C54.1537 -0.391537 50.7452 1.39648 50.6206 4.47316L49.1136 41.679C15.2225 62.9613 0 101.71 0 161.37C0 259.874 41.4966 301.37 140 301.37C238.503 301.37 280 259.874 280 161.37C280 101.916 264.883 63.23 231.238 41.9008L229.722 4.47316C229.597 1.39648 226.189 -0.391537 223.587 1.25473L185.845 25.1318C172.197 22.5979 156.942 21.3704 140 21.3704C123.168 21.3704 108 22.5821 94.4198 25.0828L56.7558 1.25473Z" fill="#79BFD6"/>
<path d="M125.42 51.26C124.914 50.9933 124.367 50.7667 123.78 50.58C123.194 50.3933 122.627 50.3 122.08 50.3C121.334 50.3 120.74 50.4733 120.3 50.82C119.86 51.1533 119.64 51.6133 119.64 52.2C119.64 52.6133 119.787 52.9733 120.08 53.28C120.374 53.5867 120.754 53.8533 121.22 54.08C121.687 54.3067 122.18 54.52 122.7 54.72C123.14 54.88 123.574 55.0733 124 55.3C124.44 55.5133 124.834 55.78 125.18 56.1C125.54 56.42 125.82 56.82 126.02 57.3C126.234 57.7667 126.34 58.34 126.34 59.02C126.34 59.7933 126.147 60.4933 125.76 61.12C125.387 61.7467 124.84 62.2467 124.12 62.62C123.414 62.98 122.554 63.16 121.54 63.16C120.927 63.16 120.327 63.0933 119.74 62.96C119.167 62.8133 118.62 62.6267 118.1 62.4C117.594 62.16 117.134 61.9 116.72 61.62L117.68 59.96C118 60.1867 118.367 60.4067 118.78 60.62C119.194 60.82 119.62 60.98 120.06 61.1C120.514 61.22 120.94 61.28 121.34 61.28C121.78 61.28 122.214 61.2067 122.64 61.06C123.067 60.9 123.42 60.66 123.7 60.34C123.98 60.0067 124.12 59.5733 124.12 59.04C124.12 58.5867 123.994 58.2067 123.74 57.9C123.5 57.58 123.174 57.3067 122.76 57.08C122.36 56.8533 121.927 56.6533 121.46 56.48C121.007 56.3067 120.547 56.1133 120.08 55.9C119.614 55.6867 119.18 55.4333 118.78 55.14C118.38 54.8333 118.054 54.46 117.8 54.02C117.56 53.5667 117.44 53.0133 117.44 52.36C117.44 51.5867 117.62 50.9133 117.98 50.34C118.354 49.7533 118.867 49.2933 119.52 48.96C120.174 48.6267 120.927 48.44 121.78 48.4C122.754 48.4 123.6 48.52 124.32 48.76C125.04 49 125.68 49.2867 126.24 49.62L125.42 51.26ZM128.363 48.48H138.043V50.54H134.223V63H132.083V50.54H128.363V48.48ZM141.063 48.48H150.603V50.54H143.203V54.68H149.783V56.74H143.203V60.94H150.883V63H141.063V48.48ZM158.169 48.48C159.249 48.48 160.169 48.6667 160.929 49.04C161.702 49.4 162.289 49.92 162.689 50.6C163.102 51.28 163.309 52.1067 163.309 53.08C163.309 53.6533 163.222 54.22 163.049 54.78C162.876 55.34 162.596 55.8533 162.209 56.32C161.836 56.7733 161.336 57.14 160.709 57.42C160.082 57.6867 159.322 57.82 158.429 57.82H156.309V63H154.169V48.48H158.169ZM158.429 55.76C158.962 55.76 159.409 55.6733 159.769 55.5C160.129 55.3133 160.409 55.08 160.609 54.8C160.822 54.52 160.969 54.2333 161.049 53.94C161.142 53.6333 161.189 53.36 161.189 53.12C161.189 52.8533 161.142 52.5733 161.049 52.28C160.969 51.9733 160.829 51.6933 160.629 51.44C160.429 51.1733 160.156 50.96 159.809 50.8C159.462 50.6267 159.029 50.54 158.509 50.54H156.309V55.76H158.429ZM122.986 113C121.008 112.963 119.16 112.627 117.442 111.992C115.762 111.32 114.269 110.331 112.962 109.024C111.693 107.68 110.704 106.019 109.994 104.04C109.285 102.024 108.968 99.6533 109.042 96.928C109.08 96.1067 109.192 95.0427 109.378 93.736C109.565 92.392 109.864 90.9173 110.274 89.312C110.722 87.7067 111.357 86.1013 112.178 84.496C113.037 82.8907 114.101 81.4347 115.37 80.128C116.64 78.784 118.208 77.72 120.074 76.936C121.941 76.1147 124.144 75.7227 126.682 75.76C128.586 75.76 130.416 76.1333 132.17 76.88C133.925 77.6267 135.474 78.728 136.818 80.184C138.162 81.64 139.152 83.4507 139.786 85.616C140.458 87.744 140.645 90.2267 140.346 93.064C140.16 95.7893 139.656 98.3653 138.834 100.792C138.013 103.219 136.874 105.365 135.418 107.232C134 109.061 132.245 110.499 130.154 111.544C128.101 112.552 125.712 113.037 122.986 113ZM123.77 106.84C125.338 106.877 126.701 106.467 127.858 105.608C129.053 104.749 130.042 103.611 130.826 102.192C131.648 100.773 132.264 99.2053 132.674 97.488C133.122 95.7707 133.402 94.0533 133.514 92.336C133.589 89.76 133.272 87.7253 132.562 86.232C131.853 84.7013 130.882 83.6187 129.65 82.984C128.418 82.312 127.093 81.9573 125.674 81.92C124.106 81.8827 122.725 82.2933 121.53 83.152C120.373 84.0107 119.384 85.1493 118.562 86.568C117.778 87.9493 117.162 89.5173 116.714 91.272C116.266 92.9893 116.005 94.7067 115.93 96.424C115.856 98.9627 116.173 100.997 116.882 102.528C117.592 104.059 118.562 105.16 119.794 105.832C121.026 106.467 122.352 106.803 123.77 106.84ZM144.235 113C148.005 109.603 151.141 106.691 153.643 104.264C156.144 101.837 158.141 99.784 159.635 98.104C161.165 96.3867 162.304 94.9307 163.051 93.736C163.835 92.504 164.339 91.44 164.563 90.544C164.824 89.6107 164.955 88.7333 164.955 87.912C164.955 86.4933 164.675 85.3547 164.115 84.496C163.592 83.6 162.864 82.9467 161.931 82.536C161.035 82.088 159.989 81.864 158.795 81.864C157.6 81.864 156.573 82.0693 155.715 82.48C154.893 82.8533 154.24 83.3573 153.755 83.992C153.269 84.6267 152.896 85.3173 152.635 86.064C152.411 86.7733 152.299 87.464 152.299 88.136C152.299 89.1067 152.429 90.0027 152.691 90.824C152.952 91.608 153.325 92.336 153.811 93.008L149.443 96.592C148.883 95.9947 148.323 95.2293 147.763 94.296C147.24 93.3627 146.792 92.3173 146.419 91.16C146.083 90.0027 145.915 88.8267 145.915 87.632C145.915 86.4 146.157 85.0933 146.643 83.712C147.128 82.2933 147.912 80.968 148.995 79.736C150.077 78.504 151.477 77.5147 153.195 76.768C154.949 75.984 157.059 75.592 159.523 75.592C162.099 75.592 164.301 76.04 166.131 76.936C167.96 77.7947 169.36 79.0453 170.331 80.688C171.339 82.2933 171.824 84.216 171.787 86.456C171.787 87.9867 171.581 89.4987 171.171 90.992C170.797 92.448 170.107 93.9787 169.099 95.584C168.128 97.152 166.765 98.9253 165.011 100.904C163.293 102.845 161.109 105.085 158.459 107.624L155.491 106.728H170.779L170.051 113H144.235Z" fill="white"/>
<path d="M191.562 133.535C191.884 132.664 193.116 132.664 193.438 133.535L195.987 140.423C196.088 140.696 196.304 140.912 196.577 141.013L203.465 143.562C204.336 143.884 204.336 145.116 203.465 145.438L196.577 147.987C196.304 148.088 196.088 148.304 195.987 148.577L193.438 155.465C193.116 156.336 191.884 156.336 191.562 155.465L189.013 148.577C188.912 148.304 188.696 148.088 188.423 147.987L181.535 145.438C180.664 145.116 180.664 143.884 181.535 143.562L188.423 141.013C188.696 140.912 188.912 140.696 189.013 140.423L191.562 133.535Z" fill="white"/>
<path d="M205.562 154.535C205.884 153.664 207.116 153.664 207.438 154.535L209.176 159.233C209.278 159.507 209.493 159.722 209.767 159.824L214.465 161.562C215.336 161.884 215.336 163.116 214.465 163.438L209.767 165.176C209.493 165.278 209.278 165.493 209.176 165.767L207.438 170.465C207.116 171.336 205.884 171.336 205.562 170.465L203.824 165.767C203.722 165.493 203.507 165.278 203.233 165.176L198.535 163.438C197.664 163.116 197.664 161.884 198.535 161.562L203.233 159.824C203.507 159.722 203.722 159.507 203.824 159.233L205.562 154.535Z" fill="white"/>
<rect x="121" y="159" width="38" height="22" rx="7" fill="white" stroke="#4A3636" stroke-width="2"/>
<rect x="98" y="164" width="12" height="7" rx="1" fill="white" stroke="#4A3636" stroke-width="2"/>
<rect x="91" y="168" width="98" height="62" rx="7" fill="white" stroke="#4A3636" stroke-width="2"/>
<line x1="91" y1="180" x2="190" y2="180" stroke="#4A3636" stroke-width="2"/>
<line x1="91" y1="218" x2="190" y2="218" stroke="#4A3636" stroke-width="2"/>
<circle cx="181" cy="174" r="2" fill="#4A3636"/>
<circle cx="140" cy="201" r="23" fill="white" stroke="#4A3636" stroke-width="2"/>
<circle cx="140" cy="201" r="17" stroke="#4A3636" stroke-width="2"/>
<rect x="154.111" y="208.25" width="54.7778" height="54.7778" rx="3" fill="white" stroke="#4A3636" stroke-width="2"/>
<path d="M154.633 238.681L168.03 226.121C169.605 224.645 172.067 224.684 173.594 226.211L196.709 249.326" stroke="#4A3636" stroke-width="2" stroke-linecap="round"/>
<path d="M182.514 235.102L188.731 229.25C190.338 227.738 192.865 227.813 194.38 229.417L208.875 244.764" stroke="#4A3636" stroke-width="2" stroke-linecap="round"/>
<circle cx="198.23" cy="218.91" r="3.54861" fill="#4A3636"/>
</svg>
