<svg width="280" height="302" viewBox="0 0 280 302" fill="none" xmlns="http://www.w3.org/2000/svg">
<path fill-rule="evenodd" clip-rule="evenodd" d="M56.7558 1.25473C54.1537 -0.391537 50.7452 1.39648 50.6206 4.47316L49.1136 41.679C15.2225 62.9613 0 101.71 0 161.37C0 259.874 41.4966 301.37 140 301.37C238.503 301.37 280 259.874 280 161.37C280 101.916 264.883 63.23 231.238 41.9008L229.722 4.47316C229.597 1.39648 226.189 -0.391537 223.587 1.25473L185.845 25.1318C172.197 22.5979 156.942 21.3704 140 21.3704C123.168 21.3704 108 22.5821 94.4198 25.0828L56.7558 1.25473Z" fill="#67B0C7"/>
<path d="M125.42 51.26C124.914 50.9933 124.367 50.7667 123.78 50.58C123.194 50.3933 122.627 50.3 122.08 50.3C121.334 50.3 120.74 50.4733 120.3 50.82C119.86 51.1533 119.64 51.6133 119.64 52.2C119.64 52.6133 119.787 52.9733 120.08 53.28C120.374 53.5867 120.754 53.8533 121.22 54.08C121.687 54.3067 122.18 54.52 122.7 54.72C123.14 54.88 123.574 55.0733 124 55.3C124.44 55.5133 124.834 55.78 125.18 56.1C125.54 56.42 125.82 56.82 126.02 57.3C126.234 57.7667 126.34 58.34 126.34 59.02C126.34 59.7933 126.147 60.4933 125.76 61.12C125.387 61.7467 124.84 62.2467 124.12 62.62C123.414 62.98 122.554 63.16 121.54 63.16C120.927 63.16 120.327 63.0933 119.74 62.96C119.167 62.8133 118.62 62.6267 118.1 62.4C117.594 62.16 117.134 61.9 116.72 61.62L117.68 59.96C118 60.1867 118.367 60.4067 118.78 60.62C119.194 60.82 119.62 60.98 120.06 61.1C120.514 61.22 120.94 61.28 121.34 61.28C121.78 61.28 122.214 61.2067 122.64 61.06C123.067 60.9 123.42 60.66 123.7 60.34C123.98 60.0067 124.12 59.5733 124.12 59.04C124.12 58.5867 123.994 58.2067 123.74 57.9C123.5 57.58 123.174 57.3067 122.76 57.08C122.36 56.8533 121.927 56.6533 121.46 56.48C121.007 56.3067 120.547 56.1133 120.08 55.9C119.614 55.6867 119.18 55.4333 118.78 55.14C118.38 54.8333 118.054 54.46 117.8 54.02C117.56 53.5667 117.44 53.0133 117.44 52.36C117.44 51.5867 117.62 50.9133 117.98 50.34C118.354 49.7533 118.867 49.2933 119.52 48.96C120.174 48.6267 120.927 48.44 121.78 48.4C122.754 48.4 123.6 48.52 124.32 48.76C125.04 49 125.68 49.2867 126.24 49.62L125.42 51.26ZM128.363 48.48H138.043V50.54H134.223V63H132.083V50.54H128.363V48.48ZM141.063 48.48H150.603V50.54H143.203V54.68H149.783V56.74H143.203V60.94H150.883V63H141.063V48.48ZM158.169 48.48C159.249 48.48 160.169 48.6667 160.929 49.04C161.702 49.4 162.289 49.92 162.689 50.6C163.102 51.28 163.309 52.1067 163.309 53.08C163.309 53.6533 163.222 54.22 163.049 54.78C162.876 55.34 162.596 55.8533 162.209 56.32C161.836 56.7733 161.336 57.14 160.709 57.42C160.082 57.6867 159.322 57.82 158.429 57.82H156.309V63H154.169V48.48H158.169ZM158.429 55.76C158.962 55.76 159.409 55.6733 159.769 55.5C160.129 55.3133 160.409 55.08 160.609 54.8C160.822 54.52 160.969 54.2333 161.049 53.94C161.142 53.6333 161.189 53.36 161.189 53.12C161.189 52.8533 161.142 52.5733 161.049 52.28C160.969 51.9733 160.829 51.6933 160.629 51.44C160.429 51.1733 160.156 50.96 159.809 50.8C159.462 50.6267 159.029 50.54 158.509 50.54H156.309V55.76H158.429ZM124.9 113C122.922 112.963 121.074 112.627 119.356 111.992C117.676 111.32 116.183 110.331 114.876 109.024C113.607 107.68 112.618 106.019 111.908 104.04C111.199 102.024 110.882 99.6533 110.956 96.928C110.994 96.1067 111.106 95.0427 111.292 93.736C111.479 92.392 111.778 90.9173 112.188 89.312C112.636 87.7067 113.271 86.1013 114.092 84.496C114.951 82.8907 116.015 81.4347 117.284 80.128C118.554 78.784 120.122 77.72 121.988 76.936C123.855 76.1147 126.058 75.7227 128.596 75.76C130.5 75.76 132.33 76.1333 134.084 76.88C135.839 77.6267 137.388 78.728 138.732 80.184C140.076 81.64 141.066 83.4507 141.7 85.616C142.372 87.744 142.559 90.2267 142.26 93.064C142.074 95.7893 141.57 98.3653 140.748 100.792C139.927 103.219 138.788 105.365 137.332 107.232C135.914 109.061 134.159 110.499 132.068 111.544C130.015 112.552 127.626 113.037 124.9 113ZM125.684 106.84C127.252 106.877 128.615 106.467 129.772 105.608C130.967 104.749 131.956 103.611 132.74 102.192C133.562 100.773 134.178 99.2053 134.588 97.488C135.036 95.7707 135.316 94.0533 135.428 92.336C135.503 89.76 135.186 87.7253 134.476 86.232C133.767 84.7013 132.796 83.6187 131.564 82.984C130.332 82.312 129.007 81.9573 127.588 81.92C126.02 81.8827 124.639 82.2933 123.444 83.152C122.287 84.0107 121.298 85.1493 120.476 86.568C119.692 87.9493 119.076 89.5173 118.628 91.272C118.18 92.9893 117.919 94.7067 117.844 96.424C117.77 98.9627 118.087 100.997 118.796 102.528C119.506 104.059 120.476 105.16 121.708 105.832C122.94 106.467 124.266 106.803 125.684 106.84ZM170.341 76.04L159.477 91.944L155.949 89.984C156.957 89.76 157.834 89.6293 158.581 89.592C159.365 89.5173 160.018 89.48 160.541 89.48C162.221 89.592 163.789 90.0773 165.245 90.936C166.738 91.7573 167.933 92.9147 168.829 94.408C169.725 95.9013 170.173 97.6747 170.173 99.728C170.173 101.333 169.93 102.92 169.445 104.488C168.96 106.056 168.176 107.512 167.093 108.856C166.048 110.2 164.666 111.283 162.949 112.104C161.232 112.925 159.16 113.355 156.733 113.392C155.576 113.392 154.325 113.243 152.981 112.944C151.637 112.608 150.349 112.085 149.117 111.376C147.885 110.667 146.821 109.752 145.925 108.632L149.845 103.536C150.629 104.731 151.656 105.645 152.925 106.28C154.194 106.877 155.445 107.157 156.677 107.12C157.797 107.12 158.768 106.933 159.589 106.56C160.448 106.149 161.157 105.627 161.717 104.992C162.277 104.32 162.706 103.573 163.005 102.752C163.304 101.893 163.453 100.979 163.453 100.008C163.453 98.104 162.762 96.6107 161.381 95.528C160.037 94.4453 158.301 93.8853 156.173 93.848C155.314 93.8107 154.474 93.8853 153.653 94.072C152.869 94.2587 152.272 94.4453 151.861 94.632L151.693 94.408L160.765 81.472L162.669 82.312H149.901L150.685 76.04H170.341Z" fill="white"/>
<rect x="104" y="135" width="71" height="128.792" rx="7" fill="white" stroke="#4A3636" stroke-width="2"/>
<path d="M119.223 134H159.778V138.111C159.778 140.32 157.987 142.111 155.778 142.111H123.223C121.014 142.111 119.223 140.32 119.223 138.111V134Z" fill="#4A3636"/>
<path d="M118.209 254.653H160.792" stroke="#4A3636" stroke-width="2" stroke-linecap="round"/>
<rect x="112.111" y="153.25" width="54.7778" height="54.7778" rx="3" stroke="#4A3636" stroke-width="2"/>
<path d="M112.633 183.681L126.03 171.121C127.605 169.645 130.067 169.684 131.594 171.211L154.709 194.326" stroke="#4A3636" stroke-width="2" stroke-linecap="round"/>
<path d="M140.514 180.102L146.731 174.25C148.338 172.738 150.865 172.813 152.38 174.417L166.875 189.764" stroke="#4A3636" stroke-width="2" stroke-linecap="round"/>
<circle cx="156.23" cy="163.91" r="3.54861" fill="#4A3636"/>
<path d="M185.009 228.981C185.009 224.894 181.691 221.589 177.608 221.589C173.525 221.589 170.207 224.903 170.207 228.981V224.238C170.207 220.151 166.889 216.846 162.806 216.846C159.243 216.846 156.262 219.368 155.56 222.718V206.386C155.56 202.298 152.243 198.994 148.16 198.994C144.076 198.994 140.759 202.307 140.759 206.386V240.679L132.811 232.741C129.922 229.855 125.228 229.855 122.339 232.741C119.45 235.627 119.45 240.315 122.339 243.201C122.339 243.201 145.58 266.397 145.744 266.534C149.864 271.176 155.87 274.099 162.56 274.099C174.965 274.099 185.027 264.048 185.027 251.658V228.999L185.009 228.981Z" fill="white" stroke="#4A3636" stroke-width="2" stroke-linecap="round" stroke-linejoin="round"/>
<path d="M170.17 233.478V228.89" stroke="#4A3636" stroke-width="2" stroke-linecap="round" stroke-linejoin="round"/>
<path d="M155.516 232.523V221.808" stroke="#4A3636" stroke-width="2" stroke-linecap="round" stroke-linejoin="round"/>
<path d="M188.293 159.293L196.293 151.293" stroke="white" stroke-width="3" stroke-linecap="round"/>
<path d="M188.646 168.646L199 168.646" stroke="white" stroke-width="3" stroke-linecap="round"/>
<path d="M188.293 178.707L196.293 186.707" stroke="white" stroke-width="3" stroke-linecap="round"/>
</svg>
