<svg width="80" height="80" viewBox="0 0 80 80" fill="none" xmlns="http://www.w3.org/2000/svg">
<path d="M35.8325 3.32341C38.2707 1.37908 41.7293 1.37908 44.1675 3.32341C45.861 4.67392 48.1039 5.12007 50.1853 4.52044C53.1819 3.65714 56.3773 4.98071 57.8857 7.71007C58.9335 9.60585 60.835 10.8764 62.9874 11.1189C66.0863 11.4681 68.5319 13.9137 68.8811 17.0126C69.1236 19.165 70.3941 21.0665 72.2899 22.1143C75.0193 23.6227 76.3429 26.8181 75.4796 29.8147C74.8799 31.8961 75.3261 34.139 76.6766 35.8325C78.6209 38.2707 78.6209 41.7293 76.6766 44.1675C75.3261 45.861 74.8799 48.1039 75.4796 50.1853C76.3429 53.1819 75.0193 56.3773 72.2899 57.8857C70.3941 58.9335 69.1236 60.835 68.8811 62.9874C68.5319 66.0863 66.0863 68.5319 62.9874 68.8811C60.835 69.1236 58.9335 70.3941 57.8857 72.2899C56.3773 75.0193 53.1819 76.3429 50.1853 75.4796C48.1039 74.8799 45.861 75.3261 44.1675 76.6766C41.7293 78.6209 38.2707 78.6209 35.8325 76.6766C34.139 75.3261 31.8961 74.8799 29.8147 75.4796C26.8181 76.3429 23.6227 75.0193 22.1143 72.2899C21.0665 70.3941 19.165 69.1236 17.0126 68.8811C13.9137 68.5319 11.4681 66.0863 11.1189 62.9874C10.8764 60.835 9.60585 58.9335 7.71007 57.8857C4.98071 56.3773 3.65714 53.1819 4.52044 50.1853C5.12007 48.1039 4.67392 45.861 3.32341 44.1675C1.37908 41.7293 1.37908 38.2707 3.32341 35.8325C4.67392 34.139 5.12007 31.8961 4.52044 29.8147C3.65714 26.8181 4.98071 23.6227 7.71007 22.1143C9.60585 21.0665 10.8764 19.165 11.1189 17.0126C11.4681 13.9137 13.9137 11.4681 17.0126 11.1189C19.165 10.8764 21.0665 9.60585 22.1143 7.71007C23.6227 4.98071 26.8181 3.65714 29.8147 4.52044C31.8961 5.12007 34.139 4.67392 35.8325 3.32341Z" fill="#CE2073"/>
<path d="M33.1242 14.8593H39.2938V16.2545H33.1242V14.8593ZM32.369 17.3425H39.857V18.7761H32.369V17.3425ZM32.6378 19.9281H39.7418V21.3361H32.6378V19.9281ZM35.4154 13.7073H36.9386V18.1361H35.4154V13.7073ZM36.9258 18.6097H38.449V24.0369C38.449 24.4209 38.4021 24.7238 38.3082 24.9457C38.2229 25.1676 38.0522 25.3425 37.7962 25.4705C37.5317 25.5814 37.216 25.6497 36.849 25.6753C36.4821 25.7094 36.0597 25.7265 35.5818 25.7265C35.5477 25.5046 35.488 25.2486 35.4026 24.9585C35.3173 24.6684 35.2192 24.4166 35.1082 24.2033C35.424 24.2118 35.7354 24.2204 36.0426 24.2289C36.3498 24.2289 36.5546 24.2289 36.657 24.2289C36.7594 24.2204 36.8277 24.2033 36.8618 24.1777C36.9045 24.1521 36.9258 24.0966 36.9258 24.0113V18.6097ZM33.0858 22.0273L34.225 21.3233C34.4213 21.511 34.6176 21.7201 34.8138 21.9505C35.0101 22.1809 35.1936 22.4113 35.3642 22.6417C35.5434 22.8636 35.68 23.0684 35.7738 23.2561L34.5578 24.0497C34.4725 23.862 34.3488 23.6529 34.1866 23.4225C34.0245 23.1836 33.8453 22.9446 33.649 22.7057C33.4613 22.4582 33.2736 22.2321 33.0858 22.0273ZM27.8122 20.5425C28.2304 20.4486 28.704 20.3334 29.233 20.1969C29.7706 20.0604 30.3338 19.911 30.9226 19.7489C31.52 19.5782 32.113 19.4076 32.7018 19.2369L32.8938 20.5937C32.0917 20.8412 31.2725 21.0929 30.4362 21.3489C29.6085 21.5964 28.8576 21.8182 28.1834 22.0145L27.8122 20.5425ZM30.1034 13.7329H31.5114V25.7521H30.1034V13.7329ZM28.4138 14.3857L29.7066 14.6033C29.6469 15.1665 29.5744 15.734 29.489 16.3057C29.4037 16.8689 29.3013 17.4022 29.1818 17.9057C29.0624 18.4092 28.9258 18.8529 28.7722 19.2369C28.6954 19.1686 28.5888 19.0918 28.4522 19.0065C28.3157 18.9212 28.1792 18.8358 28.0426 18.7505C27.9061 18.6566 27.7866 18.5841 27.6842 18.5329C27.8208 18.1916 27.936 17.7948 28.0298 17.3425C28.1322 16.8902 28.2133 16.4124 28.273 15.9089C28.3413 15.3969 28.3882 14.8892 28.4138 14.3857ZM28.7722 16.1393H32.5866V17.5985H28.4778L28.7722 16.1393ZM47.537 23.6401L48.625 22.6289C49.0773 22.8422 49.5381 23.0684 50.0074 23.3073C50.4768 23.5462 50.9205 23.7852 51.3386 24.0241C51.7653 24.263 52.1237 24.4764 52.4138 24.6641L50.993 25.7009C50.737 25.5046 50.417 25.287 50.033 25.0481C49.6576 24.8092 49.2522 24.566 48.817 24.3185C48.3904 24.071 47.9637 23.8449 47.537 23.6401ZM40.6634 21.3361H52.657V22.7825H40.6634V21.3361ZM42.6858 18.2257H50.5706V19.6337H42.6858V18.2257ZM44.593 13.6817H46.0266V21.9761H44.593V13.6817ZM47.2682 13.6817H48.7274V21.9889H47.2682V13.6817ZM41.9306 15.1921H51.505V21.8737H49.9434V16.6129H43.4154V21.8737H41.9306V15.1921ZM44.4394 22.6417L45.8474 23.5889C45.5146 23.8534 45.1221 24.1222 44.6698 24.3953C44.2261 24.6598 43.761 24.9073 43.2746 25.1377C42.7882 25.3766 42.3232 25.5772 41.8794 25.7393C41.7429 25.5772 41.5552 25.3852 41.3162 25.1633C41.0858 24.95 40.8725 24.7708 40.6762 24.6257C41.137 24.4806 41.6064 24.2972 42.0842 24.0753C42.5621 23.8449 43.0058 23.606 43.4154 23.3585C43.8336 23.1025 44.1749 22.8636 44.4394 22.6417Z" fill="white"/>
<path d="M39.6219 61.5738C38.1115 61.5738 36.6395 61.2922 35.2059 60.729C33.7723 60.1658 32.6587 59.4874 31.8651 58.6938L34.7451 54.2394C35.2059 54.8026 35.8587 55.2762 36.7035 55.6602C37.5739 56.0186 38.4059 56.1978 39.1995 56.1978C39.7883 56.1978 40.3387 56.0698 40.8507 55.8138C41.3627 55.5578 41.7723 55.1738 42.0795 54.6618C42.3867 54.1498 42.5403 53.5226 42.5403 52.7802C42.5403 51.961 42.3739 51.2442 42.0411 50.6298C41.7339 50.0154 41.2731 49.5418 40.6587 49.209C40.0699 48.8506 39.3659 48.6714 38.5467 48.6714C37.7531 48.6714 36.9979 48.7866 36.2811 49.017C35.5643 49.2218 34.7195 49.5802 33.7467 50.0922H33.7083V35.8074H46.4187V41.1834H38.5083V45.2922L37.8555 44.1402C38.2139 44.089 38.5595 44.0506 38.8923 44.025C39.2251 43.9994 39.5579 43.9866 39.8907 43.9866C41.6827 43.9866 43.1931 44.3834 44.4219 45.177C45.6763 45.9706 46.6363 47.0202 47.3019 48.3258C47.9675 49.6314 48.3003 51.0522 48.3003 52.5882C48.3003 54.2778 47.9163 55.801 47.1483 57.1578C46.3803 58.5146 45.3307 59.5898 43.9995 60.3834C42.6939 61.177 41.2347 61.5738 39.6219 61.5738Z" fill="white"/>
</svg>
