<svg width="80" height="80" viewBox="0 0 80 80" fill="none" xmlns="http://www.w3.org/2000/svg">
<path d="M35.8325 3.32341C38.2707 1.37908 41.7293 1.37908 44.1675 3.32341C45.861 4.67392 48.1039 5.12007 50.1853 4.52044C53.1819 3.65714 56.3773 4.98071 57.8857 7.71007C58.9335 9.60585 60.835 10.8764 62.9874 11.1189C66.0863 11.4681 68.5319 13.9137 68.8811 17.0126C69.1236 19.165 70.3941 21.0665 72.2899 22.1143C75.0193 23.6227 76.3429 26.8181 75.4796 29.8147C74.8799 31.8961 75.3261 34.139 76.6766 35.8325C78.6209 38.2707 78.6209 41.7293 76.6766 44.1675C75.3261 45.861 74.8799 48.1039 75.4796 50.1853C76.3429 53.1819 75.0193 56.3773 72.2899 57.8857C70.3941 58.9335 69.1236 60.835 68.8811 62.9874C68.5319 66.0863 66.0863 68.5319 62.9874 68.8811C60.835 69.1236 58.9335 70.3941 57.8857 72.2899C56.3773 75.0193 53.1819 76.3429 50.1853 75.4796C48.1039 74.8799 45.861 75.3261 44.1675 76.6766C41.7293 78.6209 38.2707 78.6209 35.8325 76.6766C34.139 75.3261 31.8961 74.8799 29.8147 75.4796C26.8181 76.3429 23.6227 75.0193 22.1143 72.2899C21.0665 70.3941 19.165 69.1236 17.0126 68.8811C13.9137 68.5319 11.4681 66.0863 11.1189 62.9874C10.8764 60.835 9.60585 58.9335 7.71007 57.8857C4.98071 56.3773 3.65714 53.1819 4.52044 50.1853C5.12007 48.1039 4.67392 45.861 3.32341 44.1675C1.37908 41.7293 1.37908 38.2707 3.32341 35.8325C4.67392 34.139 5.12007 31.8961 4.52044 29.8147C3.65714 26.8181 4.98071 23.6227 7.71007 22.1143C9.60585 21.0665 10.8764 19.165 11.1189 17.0126C11.4681 13.9137 13.9137 11.4681 17.0126 11.1189C19.165 10.8764 21.0665 9.60585 22.1143 7.71007C23.6227 4.98071 26.8181 3.65714 29.8147 4.52044C31.8961 5.12007 34.139 4.67392 35.8325 3.32341Z" fill="#CE2073"/>
<path d="M33.1243 14.8593H39.2939V16.2545H33.1243V14.8593ZM32.3691 17.3425H39.8571V18.7761H32.3691V17.3425ZM32.6379 19.9281H39.7419V21.3361H32.6379V19.9281ZM35.4155 13.7073H36.9387V18.1361H35.4155V13.7073ZM36.9259 18.6097H38.4491V24.0369C38.4491 24.4209 38.4021 24.7238 38.3083 24.9457C38.2229 25.1676 38.0523 25.3425 37.7963 25.4705C37.5317 25.5814 37.216 25.6497 36.8491 25.6753C36.4821 25.7094 36.0597 25.7265 35.5819 25.7265C35.5477 25.5046 35.488 25.2486 35.4027 24.9585C35.3173 24.6684 35.2192 24.4166 35.1083 24.2033C35.424 24.2118 35.7355 24.2204 36.0427 24.2289C36.3499 24.2289 36.5547 24.2289 36.6571 24.2289C36.7595 24.2204 36.8277 24.2033 36.8619 24.1777C36.9045 24.1521 36.9259 24.0966 36.9259 24.0113V18.6097ZM33.0859 22.0273L34.2251 21.3233C34.4213 21.511 34.6176 21.7201 34.8139 21.9505C35.0101 22.1809 35.1936 22.4113 35.3643 22.6417C35.5435 22.8636 35.68 23.0684 35.7739 23.2561L34.5579 24.0497C34.4725 23.862 34.3488 23.6529 34.1867 23.4225C34.0245 23.1836 33.8453 22.9446 33.6491 22.7057C33.4613 22.4582 33.2736 22.2321 33.0859 22.0273ZM27.8123 20.5425C28.2304 20.4486 28.704 20.3334 29.2331 20.1969C29.7707 20.0604 30.3339 19.911 30.9227 19.7489C31.52 19.5782 32.1131 19.4076 32.7019 19.2369L32.8939 20.5937C32.0917 20.8412 31.2725 21.0929 30.4363 21.3489C29.6085 21.5964 28.8576 21.8182 28.1835 22.0145L27.8123 20.5425ZM30.1035 13.7329H31.5115V25.7521H30.1035V13.7329ZM28.4139 14.3857L29.7067 14.6033C29.6469 15.1665 29.5744 15.734 29.4891 16.3057C29.4037 16.8689 29.3013 17.4022 29.1819 17.9057C29.0624 18.4092 28.9259 18.8529 28.7723 19.2369C28.6955 19.1686 28.5888 19.0918 28.4523 19.0065C28.3157 18.9212 28.1792 18.8358 28.0427 18.7505C27.9061 18.6566 27.7867 18.5841 27.6843 18.5329C27.8208 18.1916 27.936 17.7948 28.0299 17.3425C28.1323 16.8902 28.2133 16.4124 28.2731 15.9089C28.3413 15.3969 28.3883 14.8892 28.4139 14.3857ZM28.7723 16.1393H32.5867V17.5985H28.4779L28.7723 16.1393ZM47.5371 23.6401L48.6251 22.6289C49.0773 22.8422 49.5381 23.0684 50.0075 23.3073C50.4768 23.5462 50.9205 23.7852 51.3387 24.0241C51.7653 24.263 52.1237 24.4764 52.4139 24.6641L50.9931 25.7009C50.7371 25.5046 50.4171 25.287 50.0331 25.0481C49.6576 24.8092 49.2523 24.566 48.8171 24.3185C48.3904 24.071 47.9637 23.8449 47.5371 23.6401ZM40.6635 21.3361H52.6571V22.7825H40.6635V21.3361ZM42.6859 18.2257H50.5707V19.6337H42.6859V18.2257ZM44.5931 13.6817H46.0267V21.9761H44.5931V13.6817ZM47.2683 13.6817H48.7275V21.9889H47.2683V13.6817ZM41.9307 15.1921H51.5051V21.8737H49.9435V16.6129H43.4155V21.8737H41.9307V15.1921ZM44.4395 22.6417L45.8475 23.5889C45.5147 23.8534 45.1221 24.1222 44.6699 24.3953C44.2261 24.6598 43.7611 24.9073 43.2747 25.1377C42.7883 25.3766 42.3232 25.5772 41.8795 25.7393C41.7429 25.5772 41.5552 25.3852 41.3163 25.1633C41.0859 24.95 40.8725 24.7708 40.6763 24.6257C41.1371 24.4806 41.6064 24.2972 42.0843 24.0753C42.5621 23.8449 43.0059 23.606 43.4155 23.3585C43.8336 23.1025 44.1749 22.8636 44.4395 22.6417Z" fill="white"/>
<path d="M47.6521 35.8074L41.8921 46.8666L38.8585 45.2154C39.1145 45.113 39.3833 45.0362 39.6649 44.985C39.9721 44.9338 40.2537 44.9082 40.5097 44.9082C41.4057 44.8826 42.3017 44.985 43.1977 45.2154C44.0937 45.4458 44.9001 45.8554 45.6169 46.4442C46.3593 47.033 46.9481 47.8394 47.3833 48.8634C47.8441 49.8874 48.0745 51.193 48.0745 52.7802C48.0745 54.6234 47.6393 56.2106 46.7689 57.5418C45.9241 58.8474 44.8105 59.8458 43.4281 60.537C42.0457 61.2282 40.5481 61.5738 38.9353 61.5738C37.6809 61.5738 36.3625 61.3178 34.9801 60.8058C33.5977 60.2682 32.4969 59.5642 31.6777 58.6938L34.5193 54.0858C34.9033 54.5722 35.4921 55.0458 36.2857 55.5066C37.0793 55.9674 37.9113 56.1978 38.7817 56.1978C39.3449 56.1978 39.8953 56.057 40.4329 55.7754C40.9705 55.4938 41.4185 55.0714 41.7769 54.5082C42.1353 53.945 42.3145 53.2538 42.3145 52.4346C42.3145 51.3082 41.9945 50.4122 41.3545 49.7466C40.7401 49.081 39.8697 48.7482 38.7433 48.7482C37.9753 48.7482 37.3865 48.7866 36.9769 48.8634C36.5929 48.9146 36.2089 48.9914 35.8249 49.0938L35.7097 48.9402L40.2025 40.5306L41.8153 41.1834H33.7897V35.8074H47.6521Z" fill="white"/>
</svg>
