<svg width="183" height="24" viewBox="0 0 183 24" fill="none" xmlns="http://www.w3.org/2000/svg">
<g clip-path="url(#clip0_1116_1451)">
<path d="M101.74 13.15C101.74 9.485 104.6 6.49 108.32 6.49C112.04 6.49 114.925 9.48 114.925 13.15C114.925 16.82 112.065 19.835 108.32 19.835C104.575 19.835 101.74 16.895 101.74 13.15ZM112.04 13.15C112.04 10.86 110.48 9.09 108.32 9.09C106.16 9.09 104.625 10.86 104.625 13.15C104.625 15.44 106.16 17.205 108.32 17.205C110.48 17.205 112.04 15.515 112.04 13.15Z" fill="#4A3636"/>
<path d="M0.095 16.555C-0.06 16.375 -0.01 16.19 0.145 16.035L1.73 14.525C1.91 14.345 2.12 14.37 2.25 14.605C3.445 16.58 5.475 17.18 7.685 17.18C9.895 17.18 11.82 16.58 11.82 14.45C11.82 12.575 10.465 11.955 7.14 11.535C3.29 11.015 0.715 9.56 0.715 6.205C0.72 3.19 3.24 1.135 7.405 1.135C9.9 1.135 12.19 1.865 13.985 3.84C14.14 3.995 14.115 4.18 13.96 4.335L12.4 5.79C12.22 5.97 12.035 5.945 11.88 5.765C10.735 4.41 9.225 3.79 7.355 3.79C5.065 3.79 3.53 4.57 3.53 6.105C3.53 7.64 4.75 8.315 8.11 8.73C11.96 9.145 14.665 10.5 14.665 14.245C14.665 17.99 11.83 19.835 7.695 19.835C4.6 19.835 1.815 18.875 0.1 16.56L0.095 16.555Z" fill="#4A3636"/>
<path d="M28.78 11.3V19.075C28.78 19.31 28.65 19.44 28.415 19.44H26.335C26.1 19.44 25.97 19.31 25.97 19.075V11.82C25.97 9.685 25.085 8.905 23.525 8.905C21.86 8.905 20.325 10.05 20.3 12.65V19.075C20.3 19.31 20.17 19.44 19.935 19.44H17.855C17.62 19.44 17.49 19.31 17.49 19.075V7.245C17.49 7.01 17.62 6.88 17.855 6.88H19.935C20.17 6.88 20.3 7.01 20.3 7.245V8.935C21.08 7.4 22.565 6.49 24.305 6.49C26.62 6.49 28.78 7.685 28.78 11.3Z" fill="#4A3636"/>
<path d="M41.935 7.245C41.935 7.01 42.065 6.88 42.3 6.88H44.38C44.615 6.88 44.745 7.01 44.745 7.245V19.08C44.745 19.315 44.615 19.445 44.38 19.445H42.3C42.065 19.445 41.935 19.315 41.935 19.08V17.755C41 19.055 39.57 19.835 37.8 19.835C34.47 19.835 31.66 16.975 31.66 13.15C31.66 9.325 34.47 6.49 37.8 6.49C39.57 6.49 41 7.27 41.935 8.595V7.24V7.245ZM41.91 13.15C41.91 10.835 40.35 9.065 38.19 9.065C36.03 9.065 34.495 10.835 34.495 13.15C34.495 15.465 36.03 17.26 38.19 17.26C40.35 17.26 41.91 15.515 41.91 13.15Z" fill="#4A3636"/>
<path d="M61 13.15C61 16.975 58.165 19.835 54.86 19.835C53.09 19.835 51.66 19.055 50.725 17.755V23.505C50.725 23.74 50.595 23.87 50.36 23.87H48.28C48.045 23.87 47.915 23.74 47.915 23.505V7.245C47.915 7.01 48.045 6.88 48.28 6.88H50.36C50.595 6.88 50.725 7.01 50.725 7.245V8.6C51.66 7.3 53.09 6.495 54.86 6.495C58.165 6.495 61 9.38 61 13.155V13.15ZM58.165 13.15C58.165 10.835 56.605 9.065 54.445 9.065C52.285 9.065 50.75 10.86 50.75 13.2C50.75 15.54 52.285 17.26 54.445 17.26C56.605 17.26 58.165 15.515 58.165 13.15Z" fill="#4A3636"/>
<path d="M98.9 11.3V19.075C98.9 19.31 98.77 19.44 98.535 19.44H96.455C96.22 19.44 96.09 19.31 96.09 19.075V11.82C96.09 9.685 95.205 8.905 93.645 8.905C91.98 8.905 90.445 10.05 90.42 12.65V19.075C90.42 19.31 90.29 19.44 90.055 19.44H87.975C87.74 19.44 87.61 19.31 87.61 19.075V7.245C87.61 7.01 87.74 6.88 87.975 6.88H90.055C90.29 6.88 90.42 7.01 90.42 7.245V8.935C91.2 7.4 92.685 6.49 94.425 6.49C96.74 6.49 98.9 7.685 98.9 11.3Z" fill="#4A3636"/>
<path d="M136.93 11.3V19.075C136.93 19.31 136.8 19.44 136.565 19.44H134.485C134.25 19.44 134.12 19.31 134.12 19.075V11.665C134.12 9.69 133.235 8.91 131.755 8.91C130.275 8.91 128.765 10.055 128.74 12.655V19.08C128.74 19.315 128.61 19.445 128.375 19.445H126.295C126.06 19.445 125.93 19.315 125.93 19.08V11.67C125.93 9.695 125.045 8.915 123.535 8.915C122.025 8.915 120.595 10.06 120.57 12.66V19.085C120.57 19.32 120.44 19.45 120.205 19.45H118.125C117.89 19.45 117.76 19.32 117.76 19.085V7.245C117.76 7.01 117.89 6.88 118.125 6.88H120.205C120.44 6.88 120.57 7.01 120.57 7.245V8.86C121.3 7.38 122.73 6.495 124.47 6.495C126.085 6.495 127.72 7.195 128.395 9.12C129.175 7.455 130.76 6.495 132.635 6.495C134.77 6.495 136.925 7.69 136.925 11.305L136.93 11.3Z" fill="#4A3636"/>
<path d="M139.785 2.615C139.785 1.68 140.515 0.924999 141.5 0.924999C142.435 0.924999 143.19 1.68 143.19 2.615C143.19 3.55 142.435 4.33 141.5 4.33C140.51 4.33 139.785 3.575 139.785 2.615ZM142.515 19.445H140.435C140.2 19.445 140.07 19.315 140.07 19.08V7.245C140.07 7.01 140.2 6.88 140.435 6.88H142.515C142.75 6.88 142.88 7.01 142.88 7.245V19.08C142.88 19.315 142.75 19.445 142.515 19.445Z" fill="#4A3636"/>
<path d="M146.035 13.15C146.035 9.485 148.79 6.49 152.51 6.49C154.54 6.49 156.175 7.375 157.505 8.725C157.66 8.905 157.66 9.065 157.505 9.245L156.18 10.625C156.025 10.805 155.815 10.805 155.66 10.6C154.88 9.69 153.865 9.065 152.54 9.065C150.405 9.065 148.875 10.86 148.875 13.15C148.875 15.44 150.41 17.26 152.54 17.26C153.84 17.26 154.88 16.635 155.66 15.7C155.815 15.52 156 15.49 156.155 15.675L157.51 17.08C157.665 17.26 157.665 17.42 157.51 17.575C156.21 18.955 154.545 19.84 152.515 19.84C148.795 19.84 146.04 16.925 146.04 13.155L146.035 13.15Z" fill="#4A3636"/>
<path d="M171.715 11.3V19.075C171.715 19.31 171.585 19.44 171.35 19.44H169.27C169.035 19.44 168.905 19.31 168.905 19.075V11.82C168.905 9.685 168.02 8.905 166.46 8.905C164.9 8.905 163.47 9.895 163.26 12.13V19.075C163.26 19.31 163.13 19.44 162.895 19.44H160.815C160.58 19.44 160.45 19.31 160.45 19.075V0.82C160.45 0.585 160.58 0.455 160.815 0.455H162.895C163.13 0.455 163.26 0.585 163.26 0.82V8.91C164.015 7.375 165.525 6.49 167.24 6.49C169.555 6.49 171.715 7.685 171.715 11.3Z" fill="#4A3636"/>
<path d="M180.445 15.96C180.075 16.15 177.925 17.055 177.925 15.8C177.925 13.525 177.925 7.245 177.925 7.245C177.925 7.045 177.76 6.88 177.56 6.88H175.48C175.28 6.88 175.115 7.045 175.115 7.245V17C175.115 18.35 176.21 19.445 177.56 19.445C177.56 19.445 179.18 19.78 181.58 18.505C183.535 17.47 182.12 15.095 180.445 15.96Z" fill="#4A3636"/>
<path d="M176.545 4.33C177.7 4.33 178.575 3.185 178.105 1.92C177.935 1.465 177.54 1.115 177.065 0.994999C175.82 0.674999 174.825 1.52 174.825 2.615C174.825 3.575 175.555 4.33 176.54 4.33H176.545Z" fill="#4A3636"/>
<path d="M64.555 11.5C64.555 6.4 68.77 2.24 73.995 2.24C79.22 2.24 83.385 6.4 83.385 11.5C83.385 16.935 79.195 20.965 73.995 20.965C68.795 20.965 64.555 16.935 64.555 11.5ZM80.34 11.525C80.34 7.935 77.66 5.1 73.995 5.1C70.33 5.1 67.595 7.935 67.595 11.525C67.595 15.375 70.275 18.105 73.995 18.105C77.715 18.105 80.34 15.375 80.34 11.525Z" fill="#4A3636"/>
<path d="M80.93 0.0949999L75.665 3.135C75.205 3.4 75.205 4.07 75.665 4.335L80.93 7.375C81.39 7.64 81.97 7.31 81.97 6.775V0.695C81.97 0.16 81.395 -0.17 80.93 0.0949999Z" fill="#4A3636"/>
<path d="M67.01 0.0949999L72.275 3.135C72.735 3.4 72.735 4.07 72.275 4.335L67.01 7.375C66.55 7.64 65.97 7.31 65.97 6.775V0.695C65.97 0.16 66.545 -0.17 67.01 0.0949999Z" fill="#4A3636"/>
</g>
<defs>
<clipPath id="clip0_1116_1451">
<rect width="183" height="24" fill="white"/>
</clipPath>
</defs>
</svg>
