<svg width="315" height="86" viewBox="0 0 315 86" fill="none" xmlns="http://www.w3.org/2000/svg">
<path d="M67.4511 37.0742C68.9945 39.7209 72.8187 39.7209 74.362 37.0742L86.2046 16.765C87.7596 14.0984 85.836 10.7501 82.7492 10.7501L59.064 10.7501C55.9771 10.7501 54.0536 14.0984 55.6086 16.765L67.4511 37.0742Z" fill="#CCE1E4"/>
<path d="M18.2592 37.0742C19.8026 39.7209 23.6267 39.7209 25.1701 37.0742L37.0127 16.765C38.5676 14.0984 36.6441 10.7501 33.5572 10.7501L9.87205 10.7501C6.78517 10.7501 4.86165 14.0984 6.4166 16.765L18.2592 37.0742Z" fill="#CCE1E4"/>
<path d="M43.3014 48.9258C44.8448 46.2791 48.6689 46.2791 50.2123 48.9258L62.0549 69.235C63.6098 71.9016 61.6863 75.2499 58.5995 75.2499H34.9143C31.8274 75.2499 29.9039 71.9016 31.4588 69.235L43.3014 48.9258Z" fill="#CCE1E4"/>
<path d="M92.6071 48.9258C94.1505 46.2791 97.9746 46.2791 99.518 48.9258L111.361 69.235C112.916 71.9016 110.992 75.2499 107.905 75.2499H84.2199C81.1331 75.2499 79.2096 71.9016 80.7645 69.235L92.6071 48.9258Z" fill="#CCE1E4"/>
<path d="M141.913 48.9258C143.456 46.2791 147.28 46.2791 148.824 48.9258L160.666 69.235C162.221 71.9016 160.298 75.2499 157.211 75.2499H133.526C130.439 75.2499 128.515 71.9016 130.07 69.235L141.913 48.9258Z" fill="#CCE1E4"/>
<path d="M116.757 37.0742C118.3 39.7209 122.124 39.7209 123.668 37.0742L135.51 16.765C137.065 14.0984 135.142 10.7501 132.055 10.7501L108.37 10.7501C105.283 10.7501 103.359 14.0984 104.914 16.765L116.757 37.0742Z" fill="#CCE1E4"/>
<path d="M166.176 37.0742C167.72 39.7209 171.544 39.7209 173.087 37.0742L184.93 16.765C186.485 14.0984 184.561 10.7501 181.474 10.7501L157.789 10.7501C154.702 10.7501 152.779 14.0984 154.334 16.765L166.176 37.0742Z" fill="#CCE1E4"/>
<path d="M216.374 37.0742C217.918 39.7209 221.742 39.7209 223.285 37.0742L235.128 16.765C236.683 14.0984 234.759 10.7501 231.672 10.7501L207.987 10.7501C204.9 10.7501 202.977 14.0984 204.532 16.765L216.374 37.0742Z" fill="#CCE1E4"/>
<path d="M191.219 48.9258C192.762 46.2791 196.586 46.2791 198.129 48.9258L209.972 69.235C211.527 71.9016 209.603 75.2499 206.517 75.2499H182.831C179.745 75.2499 177.821 71.9016 179.376 69.235L191.219 48.9258Z" fill="#CCE1E4"/>
<path d="M289.83 48.9258C291.373 46.2791 295.198 46.2791 296.741 48.9258L308.583 69.235C310.138 71.9016 308.215 75.2499 305.128 75.2499H281.443C278.356 75.2499 276.432 71.9016 277.987 69.235L289.83 48.9258Z" fill="#CCE1E4"/>
<path d="M240.638 48.9258C242.181 46.2791 246.005 46.2791 247.549 48.9258L259.391 69.235C260.946 71.9016 259.023 75.2499 255.936 75.2499H232.251C229.164 75.2499 227.24 71.9016 228.795 69.235L240.638 48.9258Z" fill="#CCE1E4"/>
<path d="M265.68 37.0742C267.224 39.7209 271.048 39.7209 272.591 37.0742L284.434 16.765C285.989 14.0984 284.065 10.7501 280.978 10.7501L257.293 10.7501C254.206 10.7501 252.283 14.0984 253.838 16.765L265.68 37.0742Z" fill="#CCE1E4"/>
<path d="M240.524 48.9258C242.068 46.2791 245.892 46.2791 247.435 48.9258L259.278 69.235C260.833 71.9016 258.909 75.2499 255.822 75.2499H232.137C229.05 75.2499 227.127 71.9016 228.682 69.235L240.524 48.9258Z" fill="#CCE1E4"/>
</svg>
