<svg width="100" height="100" viewBox="0 0 100 100" fill="none" xmlns="http://www.w3.org/2000/svg">
<path d="M44.7907 4.15427C47.8383 1.72385 52.1617 1.72385 55.2093 4.15427C57.3262 5.84241 60.1299 6.40009 62.7316 5.65055C66.4774 4.57143 70.4716 6.22589 72.3572 9.63759C73.6669 12.0073 76.0437 13.5955 78.7343 13.8986C82.6079 14.3351 85.6649 17.3921 86.1014 21.2657C86.4045 23.9563 87.9927 26.3331 90.3624 27.6428C93.7741 29.5284 95.4286 33.5226 94.3495 37.2684C93.5999 39.8701 94.1576 42.6738 95.8457 44.7907C98.2761 47.8383 98.2761 52.1617 95.8457 55.2093C94.1576 57.3262 93.5999 60.1299 94.3495 62.7316C95.4286 66.4774 93.7741 70.4716 90.3624 72.3572C87.9927 73.6669 86.4045 76.0437 86.1014 78.7343C85.6649 82.6079 82.6079 85.6649 78.7343 86.1014C76.0437 86.4045 73.6669 87.9927 72.3572 90.3624C70.4716 93.7741 66.4774 95.4286 62.7316 94.3495C60.1299 93.5999 57.3262 94.1576 55.2093 95.8457C52.1617 98.2761 47.8383 98.2761 44.7907 95.8457C42.6738 94.1576 39.8701 93.5999 37.2684 94.3495C33.5226 95.4286 29.5284 93.7741 27.6428 90.3624C26.3331 87.9927 23.9563 86.4045 21.2657 86.1014C17.3921 85.6649 14.3351 82.6079 13.8986 78.7343C13.5955 76.0437 12.0073 73.6669 9.63759 72.3572C6.22589 70.4716 4.57143 66.4774 5.65055 62.7316C6.40009 60.1299 5.84241 57.3262 4.15427 55.2093C1.72385 52.1617 1.72385 47.8383 4.15427 44.7907C5.84241 42.6738 6.40009 39.8701 5.65055 37.2684C4.57143 33.5226 6.22589 29.5284 9.63759 27.6428C12.0073 26.3331 13.5955 23.9563 13.8986 21.2657C14.3351 17.3921 17.3921 14.3351 21.2657 13.8986C23.9563 13.5955 26.3331 12.0073 27.6428 9.63759C29.5284 6.22589 33.5226 4.57143 37.2684 5.65055C39.8701 6.40009 42.6738 5.84241 44.7907 4.15427Z" fill="#CE2073"/>
<path d="M41.4053 18.824H49.1173V20.568H41.4053V18.824ZM40.4613 21.928H49.8213V23.72H40.4613V21.928ZM40.7973 25.16H49.6773V26.92H40.7973V25.16ZM44.2693 17.384H46.1733V22.92H44.2693V17.384ZM46.1573 23.512H48.0613V30.296C48.0613 30.776 48.0027 31.1547 47.8853 31.432C47.7787 31.7093 47.5653 31.928 47.2453 32.088C46.9147 32.2267 46.52 32.312 46.0613 32.344C45.6027 32.3867 45.0747 32.408 44.4773 32.408C44.4347 32.1307 44.36 31.8107 44.2533 31.448C44.1467 31.0853 44.024 30.7707 43.8853 30.504C44.28 30.5147 44.6693 30.5253 45.0533 30.536C45.4373 30.536 45.6933 30.536 45.8213 30.536C45.9493 30.5253 46.0347 30.504 46.0773 30.472C46.1307 30.44 46.1573 30.3707 46.1573 30.264V23.512ZM41.3573 27.784L42.7813 26.904C43.0267 27.1387 43.272 27.4 43.5173 27.688C43.7627 27.976 43.992 28.264 44.2053 28.552C44.4293 28.8293 44.6 29.0853 44.7173 29.32L43.1973 30.312C43.0907 30.0773 42.936 29.816 42.7333 29.528C42.5307 29.2293 42.3067 28.9307 42.0613 28.632C41.8267 28.3227 41.592 28.04 41.3573 27.784ZM34.7653 25.928C35.288 25.8107 35.88 25.6667 36.5413 25.496C37.2133 25.3253 37.9173 25.1387 38.6533 24.936C39.4 24.7227 40.1413 24.5093 40.8773 24.296L41.1173 25.992C40.1147 26.3013 39.0907 26.616 38.0453 26.936C37.0107 27.2453 36.072 27.5227 35.2293 27.768L34.7653 25.928ZM37.6293 17.416H39.3893V32.44H37.6293V17.416ZM35.5173 18.232L37.1333 18.504C37.0587 19.208 36.968 19.9173 36.8613 20.632C36.7547 21.336 36.6267 22.0027 36.4773 22.632C36.328 23.2613 36.1573 23.816 35.9653 24.296C35.8693 24.2107 35.736 24.1147 35.5653 24.008C35.3947 23.9013 35.224 23.7947 35.0533 23.688C34.8827 23.5707 34.7333 23.48 34.6053 23.416C34.776 22.9893 34.92 22.4933 35.0373 21.928C35.1653 21.3627 35.2667 20.7653 35.3413 20.136C35.4267 19.496 35.4853 18.8613 35.5173 18.232ZM35.9653 20.424H40.7333V22.248H35.5973L35.9653 20.424ZM59.4213 29.8L60.7813 28.536C61.3467 28.8027 61.9227 29.0853 62.5093 29.384C63.096 29.6827 63.6507 29.9813 64.1733 30.28C64.7067 30.5787 65.1547 30.8453 65.5173 31.08L63.7413 32.376C63.4213 32.1307 63.0213 31.8587 62.5413 31.56C62.072 31.2613 61.5653 30.9573 61.0213 30.648C60.488 30.3387 59.9547 30.056 59.4213 29.8ZM50.8293 26.92H65.8213V28.728H50.8293V26.92ZM53.3573 23.032H63.2133V24.792H53.3573V23.032ZM55.7413 17.352H57.5333V27.72H55.7413V17.352ZM59.0853 17.352H60.9093V27.736H59.0853V17.352ZM52.4133 19.24H64.3813V27.592H62.4293V21.016H54.2693V27.592H52.4133V19.24ZM55.5493 28.552L57.3093 29.736C56.8933 30.0667 56.4027 30.4027 55.8373 30.744C55.2827 31.0747 54.7013 31.384 54.0933 31.672C53.4853 31.9707 52.904 32.2213 52.3493 32.424C52.1787 32.2213 51.944 31.9813 51.6453 31.704C51.3573 31.4373 51.0907 31.2133 50.8453 31.032C51.4213 30.8507 52.008 30.6213 52.6053 30.344C53.2027 30.056 53.7573 29.7573 54.2693 29.448C54.792 29.128 55.2187 28.8293 55.5493 28.552Z" fill="white"/>
<path d="M44.4833 44.5092H54.0353V76.3333H47.0273V51.2293H44.4833V44.5092Z" fill="white"/>
</svg>
