<svg width="26" height="24" viewBox="0 0 26 24" fill="none" xmlns="http://www.w3.org/2000/svg">
<path d="M17.56 20.492H25.496V23.5H13.432L17.56 20.492ZM0.888 11.948C0.888 10.348 1.18667 8.844 1.784 7.436C2.40267 6.00667 3.256 4.748 4.344 3.66C5.432 2.55067 6.68 1.68667 8.088 1.068C9.51733 0.427999 11.0533 0.108 12.696 0.108C14.3173 0.108 15.832 0.427999 17.24 1.068C18.6693 1.68667 19.928 2.55067 21.016 3.66C22.1253 4.748 22.9893 6.00667 23.608 7.436C24.2267 8.844 24.536 10.348 24.536 11.948C24.536 13.5907 24.2267 15.1267 23.608 16.556C22.9893 17.9853 22.1253 19.244 21.016 20.332C19.928 21.3987 18.6693 22.2413 17.24 22.86C15.832 23.4573 14.3173 23.756 12.696 23.756C11.0533 23.756 9.51733 23.4573 8.088 22.86C6.68 22.2627 5.432 21.4307 4.344 20.364C3.256 19.2973 2.40267 18.0493 1.784 16.62C1.18667 15.1907 0.888 13.6333 0.888 11.948ZM4.088 11.98C4.088 13.196 4.312 14.3373 4.76 15.404C5.208 16.4493 5.82667 17.3773 6.616 18.188C7.40533 18.9987 8.32267 19.628 9.368 20.076C10.4133 20.524 11.544 20.748 12.76 20.748C13.9547 20.748 15.0747 20.524 16.12 20.076C17.1653 19.628 18.072 18.9987 18.84 18.188C19.608 17.3773 20.216 16.4493 20.664 15.404C21.112 14.3373 21.336 13.1853 21.336 11.948C21.336 10.7533 21.112 9.62267 20.664 8.556C20.216 7.48933 19.5973 6.56133 18.808 5.772C18.0187 4.96133 17.1013 4.332 16.056 3.884C15.0107 3.41467 13.8907 3.18 12.696 3.18C11.48 3.18 10.3493 3.41467 9.304 3.884C8.25867 4.332 7.34133 4.96133 6.552 5.772C5.76267 6.58267 5.15467 7.52133 4.728 8.588C4.30133 9.65467 4.088 10.7853 4.088 11.98Z" fill="#9ED0E0"/>
</svg>
